<mxfile host="app.diagrams.net" modified="2021-06-15T07:36:07.869Z" agent="5.0 (Macintosh; Intel Mac OS X 10_13_6) AppleWebKit/537.36 (KHTML, like Gecko) Chrome/90.0.4430.212 Safari/537.36" etag="xmL71yfawIk7izSU_Cvk" version="14.7.8" type="github">
  <diagram id="VP6CyuRAPTUwuIz0MmTR" name="第 1 页">
    <mxGraphModel dx="946" dy="646" grid="1" gridSize="10" guides="1" tooltips="1" connect="1" arrows="1" fold="1" page="1" pageScale="1" pageWidth="827" pageHeight="1169" math="0" shadow="0">
      <root>
        <mxCell id="0" />
        <mxCell id="1" parent="0" />
        <mxCell id="C-HojChxheN_6zDMK7is-8" style="edgeStyle=orthogonalEdgeStyle;orthogonalLoop=1;jettySize=auto;html=1;exitX=0.5;exitY=1;exitDx=0;exitDy=0;entryX=0.5;entryY=0;entryDx=0;entryDy=0;fontFamily=Comic Sans MS;fontSize=16;sketch=1;curved=1;" edge="1" parent="1" source="C-HojChxheN_6zDMK7is-1" target="C-HojChxheN_6zDMK7is-2">
          <mxGeometry relative="1" as="geometry" />
        </mxCell>
        <mxCell id="C-HojChxheN_6zDMK7is-1" value="开始" style="ellipse;whiteSpace=wrap;html=1;strokeWidth=2;fillWeight=2;hachureGap=8;fillColor=#ffe6cc;fillStyle=auto;sketch=1;strokeColor=#d79b00;fontFamily=Comic Sans MS;fontSize=16;" vertex="1" parent="1">
          <mxGeometry x="270" y="40" width="120" height="60" as="geometry" />
        </mxCell>
        <mxCell id="C-HojChxheN_6zDMK7is-10" style="edgeStyle=orthogonalEdgeStyle;curved=1;sketch=1;orthogonalLoop=1;jettySize=auto;html=1;exitX=0.5;exitY=1;exitDx=0;exitDy=0;entryX=0.5;entryY=0;entryDx=0;entryDy=0;fontFamily=Comic Sans MS;fontSize=16;" edge="1" parent="1" source="C-HojChxheN_6zDMK7is-2" target="C-HojChxheN_6zDMK7is-4">
          <mxGeometry relative="1" as="geometry" />
        </mxCell>
        <mxCell id="C-HojChxheN_6zDMK7is-2" value="SDK Demo验证" style="rounded=1;whiteSpace=wrap;html=1;strokeWidth=2;fillWeight=4;hachureGap=8;hachureAngle=45;fillColor=#dae8fc;sketch=1;fillStyle=auto;fontFamily=Comic Sans MS;fontSize=16;strokeColor=#6c8ebf;" vertex="1" parent="1">
          <mxGeometry x="270" y="150" width="120" height="60" as="geometry" />
        </mxCell>
        <mxCell id="C-HojChxheN_6zDMK7is-11" style="edgeStyle=orthogonalEdgeStyle;curved=1;sketch=1;orthogonalLoop=1;jettySize=auto;html=1;exitX=1;exitY=0.5;exitDx=0;exitDy=0;entryX=0;entryY=0.5;entryDx=0;entryDy=0;fontFamily=Comic Sans MS;fontSize=16;" edge="1" parent="1" source="C-HojChxheN_6zDMK7is-4" target="C-HojChxheN_6zDMK7is-7">
          <mxGeometry relative="1" as="geometry" />
        </mxCell>
        <mxCell id="C-HojChxheN_6zDMK7is-15" value="Y" style="edgeLabel;html=1;align=center;verticalAlign=middle;resizable=0;points=[];fontSize=16;fontFamily=Comic Sans MS;" vertex="1" connectable="0" parent="C-HojChxheN_6zDMK7is-11">
          <mxGeometry x="-0.2" y="-2" relative="1" as="geometry">
            <mxPoint as="offset" />
          </mxGeometry>
        </mxCell>
        <mxCell id="C-HojChxheN_6zDMK7is-14" style="edgeStyle=orthogonalEdgeStyle;curved=1;sketch=1;orthogonalLoop=1;jettySize=auto;html=1;exitX=0;exitY=0.5;exitDx=0;exitDy=0;entryX=1;entryY=0.5;entryDx=0;entryDy=0;fontFamily=Comic Sans MS;fontSize=16;" edge="1" parent="1" source="C-HojChxheN_6zDMK7is-4" target="C-HojChxheN_6zDMK7is-12">
          <mxGeometry relative="1" as="geometry" />
        </mxCell>
        <mxCell id="C-HojChxheN_6zDMK7is-16" value="N" style="edgeLabel;html=1;align=center;verticalAlign=middle;resizable=0;points=[];fontSize=16;fontFamily=Comic Sans MS;" vertex="1" connectable="0" parent="C-HojChxheN_6zDMK7is-14">
          <mxGeometry x="-0.0556" y="3" relative="1" as="geometry">
            <mxPoint as="offset" />
          </mxGeometry>
        </mxCell>
        <mxCell id="C-HojChxheN_6zDMK7is-4" value="图商问题？" style="rhombus;whiteSpace=wrap;html=1;strokeWidth=2;fillWeight=-1;hachureGap=8;fillStyle=cross-hatch;fillColor=#d5e8d4;sketch=1;rounded=1;hachureAngle=45;fontFamily=Comic Sans MS;fontSize=16;strokeColor=#82b366;" vertex="1" parent="1">
          <mxGeometry x="270" y="270" width="120" height="60" as="geometry" />
        </mxCell>
        <mxCell id="C-HojChxheN_6zDMK7is-18" style="edgeStyle=orthogonalEdgeStyle;curved=1;sketch=1;orthogonalLoop=1;jettySize=auto;html=1;exitX=0.5;exitY=1;exitDx=0;exitDy=0;fontFamily=Comic Sans MS;fontSize=16;" edge="1" parent="1" source="C-HojChxheN_6zDMK7is-7" target="C-HojChxheN_6zDMK7is-17">
          <mxGeometry relative="1" as="geometry" />
        </mxCell>
        <mxCell id="C-HojChxheN_6zDMK7is-7" value="RD群沟通" style="rounded=1;whiteSpace=wrap;html=1;strokeWidth=2;fillWeight=4;hachureGap=8;hachureAngle=45;fillColor=#dae8fc;sketch=1;fillStyle=auto;fontFamily=Comic Sans MS;fontSize=16;strokeColor=#6c8ebf;" vertex="1" parent="1">
          <mxGeometry x="420" y="390" width="120" height="60" as="geometry" />
        </mxCell>
        <mxCell id="C-HojChxheN_6zDMK7is-12" value="SDK Demo验证" style="rounded=1;whiteSpace=wrap;html=1;strokeWidth=2;fillWeight=4;hachureGap=8;hachureAngle=45;fillColor=#dae8fc;sketch=1;fillStyle=auto;fontFamily=Comic Sans MS;fontSize=16;strokeColor=#6c8ebf;" vertex="1" parent="1">
          <mxGeometry x="130" y="390" width="120" height="60" as="geometry" />
        </mxCell>
        <mxCell id="C-HojChxheN_6zDMK7is-21" style="edgeStyle=orthogonalEdgeStyle;curved=1;sketch=1;orthogonalLoop=1;jettySize=auto;html=1;exitX=0;exitY=0.5;exitDx=0;exitDy=0;entryX=1;entryY=0.5;entryDx=0;entryDy=0;fontFamily=Comic Sans MS;fontSize=16;" edge="1" parent="1" source="C-HojChxheN_6zDMK7is-17" target="C-HojChxheN_6zDMK7is-19">
          <mxGeometry relative="1" as="geometry" />
        </mxCell>
        <mxCell id="C-HojChxheN_6zDMK7is-24" value="N" style="edgeLabel;html=1;align=center;verticalAlign=middle;resizable=0;points=[];fontSize=16;fontFamily=Comic Sans MS;" vertex="1" connectable="0" parent="C-HojChxheN_6zDMK7is-21">
          <mxGeometry x="-0.14" y="4" relative="1" as="geometry">
            <mxPoint as="offset" />
          </mxGeometry>
        </mxCell>
        <mxCell id="C-HojChxheN_6zDMK7is-22" style="edgeStyle=orthogonalEdgeStyle;curved=1;sketch=1;orthogonalLoop=1;jettySize=auto;html=1;exitX=1;exitY=0.5;exitDx=0;exitDy=0;entryX=0;entryY=0.5;entryDx=0;entryDy=0;fontFamily=Comic Sans MS;fontSize=16;" edge="1" parent="1" source="C-HojChxheN_6zDMK7is-17" target="C-HojChxheN_6zDMK7is-20">
          <mxGeometry relative="1" as="geometry" />
        </mxCell>
        <mxCell id="C-HojChxheN_6zDMK7is-23" value="Y" style="edgeLabel;html=1;align=center;verticalAlign=middle;resizable=0;points=[];fontSize=16;fontFamily=Comic Sans MS;" vertex="1" connectable="0" parent="C-HojChxheN_6zDMK7is-22">
          <mxGeometry x="0.0526" y="1" relative="1" as="geometry">
            <mxPoint as="offset" />
          </mxGeometry>
        </mxCell>
        <mxCell id="C-HojChxheN_6zDMK7is-17" value="接入过程？" style="rhombus;whiteSpace=wrap;html=1;strokeWidth=2;fillWeight=-1;hachureGap=8;fillStyle=cross-hatch;fillColor=#d5e8d4;sketch=1;rounded=1;hachureAngle=45;fontFamily=Comic Sans MS;fontSize=16;strokeColor=#82b366;" vertex="1" parent="1">
          <mxGeometry x="420" y="500" width="120" height="60" as="geometry" />
        </mxCell>
        <mxCell id="C-HojChxheN_6zDMK7is-19" value="RD群沟通" style="rounded=1;whiteSpace=wrap;html=1;strokeWidth=2;fillWeight=4;hachureGap=8;hachureAngle=45;fillColor=#dae8fc;sketch=1;fillStyle=auto;fontFamily=Comic Sans MS;fontSize=16;strokeColor=#6c8ebf;" vertex="1" parent="1">
          <mxGeometry x="320" y="600" width="120" height="60" as="geometry" />
        </mxCell>
        <mxCell id="C-HojChxheN_6zDMK7is-20" value="RD群沟通" style="rounded=1;whiteSpace=wrap;html=1;strokeWidth=2;fillWeight=4;hachureGap=8;hachureAngle=45;fillColor=#dae8fc;sketch=1;fillStyle=auto;fontFamily=Comic Sans MS;fontSize=16;strokeColor=#6c8ebf;" vertex="1" parent="1">
          <mxGeometry x="530" y="600" width="120" height="60" as="geometry" />
        </mxCell>
      </root>
    </mxGraphModel>
  </diagram>
</mxfile>
